<?xml version="1.0" standalone="no"?>
<!DOCTYPE svg PUBLIC "-//W3C//DTD SVG 20010904//EN"
 "http://www.w3.org/TR/2001/REC-SVG-20010904/DTD/svg10.dtd">
<svg version="1.0" xmlns="http://www.w3.org/2000/svg"
 width="400.000000pt" height="400.000000pt" viewBox="0 0 400.000000 400.000000"
 preserveAspectRatio="xMidYMid meet">
<metadata>
Created by potrace 1.11, written by Peter Selinger 2001-2013
</metadata>
<g transform="translate(0.000000,400.000000) scale(0.100000,-0.100000)"
fill="#000000" stroke="none">
<path d="M412 3232 l-22 -3 2 -502 3 -502 180 -1 c99 0 185 1 191 3 6 2 10 21
9 41 l-1 37 -144 5 -144 5 -1 194 0 194 140 1 140 1 1 43 1 42 -141 0 -141 0
1 173 c1 94 2 174 3 177 0 3 58 5 129 5 70 -1 132 0 138 2 16 6 16 83 1 84
-55 2 -327 3 -345 1z"/>
<path d="M2246 2999 c-59 -16 -119 -98 -146 -199 -20 -74 -22 -222 -4 -307 36
-176 115 -255 267 -270 l64 -6 6 33 c12 57 10 60 -34 60 -136 0 -211 86 -225
259 l-6 67 139 -1 c76 0 143 3 150 8 12 9 9 99 -7 177 -10 49 -33 106 -52 131
-34 42 -99 63 -152 48z m78 -101 c26 -23 54 -107 52 -157 l-1 -26 -100 0 -100
0 3 25 c12 106 52 180 97 180 13 0 35 -10 49 -22z"/>
<path d="M3382 2990 c-53 -24 -98 -82 -124 -160 -41 -122 -33 -378 16 -494 33
-78 104 -131 171 -127 124 7 197 156 198 406 1 270 -117 439 -261 375z m94
-88 c52 -42 73 -131 72 -311 0 -124 -11 -190 -41 -248 -38 -72 -105 -66 -145
15 -28 55 -34 86 -37 212 -5 184 25 312 79 339 31 14 48 13 72 -7z"/>
<path d="M1263 2986 c-4 -5 -7 -248 -8 -540 -1 -292 -2 -534 -3 -537 -1 -3
-179 -5 -394 -5 -216 1 -403 -1 -415 -3 l-23 -3 4 -327 c3 -179 7 -342 10
-361 42 -247 147 -400 315 -457 97 -33 234 -28 313 10 61 30 135 103 166 164
24 45 57 149 67 208 l8 40 21 -61 c61 -175 170 -263 332 -270 156 -7 270 64
340 209 19 39 34 78 35 87 0 8 5 4 11 -10 45 -106 90 -181 146 -241 142 -153
334 -229 597 -234 241 -5 416 41 562 149 155 114 250 298 279 539 5 46 9 449
5 545 l-1 23 -1140 -4 -1140 -3 -1 116 c0 63 -1 134 -2 157 l-2 41 59 17 c105
29 175 95 216 203 26 68 31 102 32 197 0 173 -76 295 -211 340 -55 18 -170 25
-178 11z m184 -105 c71 -37 112 -130 114 -255 2 -157 -47 -260 -143 -301 -72
-30 -68 -48 -68 284 l0 300 29 -4 c16 -2 47 -13 68 -24z m-210 -1110 c15 -1
10 -456 -6 -552 -30 -178 -98 -290 -207 -338 -56 -25 -164 -31 -231 -12 -97
27 -179 109 -222 226 -39 103 -48 186 -50 460 l-2 220 353 -1 c194 -1 358 -2
365 -3z m730 -236 c-4 -211 -7 -250 -27 -323 -36 -134 -98 -207 -194 -233 -59
-16 -173 -6 -222 19 -93 47 -154 167 -171 337 -6 55 -10 406 -6 425 4 13 46
15 314 15 l310 0 -4 -240z m1567 60 c0 -214 -7 -279 -35 -371 -38 -126 -115
-239 -209 -306 -47 -34 -127 -78 -148 -81 -9 -1 -21 -5 -27 -9 -11 -7 -100
-26 -160 -34 -69 -9 -247 -6 -315 6 -258 45 -435 186 -509 406 -31 94 -41 180
-42 362 -1 92 -1 177 0 190 l1 22 723 -2 722 -3 -1 -180z"/>
<path d="M1978 2957 c-31 -23 -70 -52 -87 -65 l-31 -23 0 60 0 60 -42 -2 -43
-2 -3 -381 -2 -380 45 0 45 1 0 277 0 277 58 37 c31 21 80 49 108 63 l50 26
-11 44 c-6 25 -15 46 -20 47 -6 1 -35 -16 -67 -39z"/>
<path d="M2744 2989 c-108 -14 -166 -52 -198 -131 -39 -92 -15 -169 86 -274
104 -108 120 -155 76 -221 -27 -38 -64 -53 -142 -56 l-56 -2 0 -42 c0 -40 2
-43 28 -44 134 -5 216 34 258 125 49 105 29 180 -78 292 -42 44 -82 93 -88
109 -14 36 -5 95 19 118 25 25 87 45 128 41 33 -3 33 -3 33 41 0 24 -3 46 -7
48 -5 2 -31 0 -59 -4z"/>
<path d="M3095 2989 c-75 -8 -103 -19 -148 -59 -69 -60 -83 -177 -32 -265 13
-22 44 -59 69 -83 67 -61 96 -108 96 -154 0 -78 -54 -118 -165 -121 l-55 -2 5
-39 c2 -21 7 -41 10 -44 6 -6 81 -5 114 2 60 13 92 30 122 63 43 49 59 92 59
155 -1 71 -26 122 -94 188 -75 72 -95 101 -100 142 -9 78 42 127 137 131 l53
2 -4 45 c-2 25 -4 45 -5 45 -1 1 -29 -2 -62 -6z"/>
<path d="M1022 2980 c-92 -22 -156 -106 -153 -204 1 -76 21 -113 95 -186 78
-76 106 -126 100 -178 -8 -65 -57 -99 -151 -106 -32 -2 -60 -4 -63 -5 -3 -1
-4 -19 -2 -41 4 -35 7 -40 31 -41 137 -6 235 50 265 151 30 101 1 181 -100
279 -69 68 -84 93 -84 143 0 69 53 110 146 112 l43 0 -2 43 -1 43 -46 -1 c-25
-1 -60 -5 -78 -9z"/>
</g>
</svg>
