<?xml version="1.0" encoding="utf-8"?>
<!-- Generator: Adobe Illustrator 23.0.1, SVG Export Plug-In . SVG Version: 6.00 Build 0)  -->
<svg version="1.1" id="Layer_1" xmlns="http://www.w3.org/2000/svg" xmlns:xlink="http://www.w3.org/1999/xlink" x="0px" y="0px"
	 viewBox="0 0 400 300" style="enable-background:new 0 0 400 300;" xml:space="preserve">
<style type="text/css">
	.st0{fill:#744734;}
	.st1{fill:#878788;}
</style>
<g>
	<g>
		<g>
			<path class="st0" d="M77.45,127.56c-1.53,0-4.79-0.01-9.78-0.04c-4.98-0.02-8.36-0.04-10.12-0.04c-2.98,0-6.38,0.01-10.22,0.04
				c-3.83,0.03-6.59,0.04-8.25,0.04c0-2.01,0.02-6.88,0.07-14.59c0.04-7.72,0.07-20.45,0.07-38.21c0-6.44-0.02-13.56-0.07-21.38
				c-0.05-7.82-0.07-16.71-0.07-26.66c2.12,0,4.77,0.01,7.95,0.04c3.18,0.03,6.48,0.04,9.91,0.04c3.11,0,6.72-0.01,10.83-0.04
				c4.1-0.02,7.06-0.04,8.86-0.04v8.74c-1.53,0-3.95-0.01-7.24-0.04c-3.29-0.02-5.66-0.04-7.1-0.04c-3.02,0-5.75,0.01-8.19,0.04
				c-2.44,0.03-4.29,0.04-5.55,0.04c-0.05,4.38-0.08,9.5-0.1,15.36c-0.02,5.86-0.03,12.57-0.03,20.11c1.53,0,3.25,0.01,5.14,0.04
				c1.89,0.03,3.29,0.04,4.19,0.04c2.66,0,5.95-0.01,9.88-0.04c3.92-0.02,6.92-0.04,9-0.04v8.74c-1.26,0-4.29-0.01-9.07-0.04
				c-4.78-0.02-7.94-0.04-9.47-0.04c-1.08,0-2.55,0.01-4.4,0.04c-1.85,0.03-3.61,0.04-5.28,0.04c0,2.11,0.02,8.25,0.07,18.41
				c0.04,10.16,0.07,17.08,0.07,20.75c1.62,0,3.61,0.01,5.95,0.04c2.34,0.03,4.92,0.04,7.71,0.04c2.35,0,5.13-0.01,8.36-0.04
				c3.22-0.02,5.51-0.04,6.87-0.04V127.56z"/>
			<path class="st0" d="M115.61,105.72c0,3.52-0.63,6.7-1.89,9.57c-1.26,2.86-3.09,5.37-5.48,7.53c-1.94,1.76-4.52,3.11-7.75,4.07
				c-3.23,0.95-6.8,1.43-10.72,1.43c-1.17,0-2.13-0.03-2.88-0.08c-0.74-0.05-1.3-0.08-1.66-0.08l-0.74-8.89
				c0.86,0.1,1.76,0.16,2.71,0.19c0.95,0.03,2.03,0.04,3.25,0.04c2.48,0,4.66-0.24,6.53-0.72c1.87-0.48,3.46-1.14,4.77-2
				c1.4-0.9,2.55-2.11,3.45-3.62c0.9-1.51,1.35-3.44,1.35-5.8c0-2.26-0.38-4.2-1.15-5.84c-0.77-1.63-1.76-3.13-2.98-4.48
				c-0.77-0.85-2.05-2.12-3.86-3.8c-1.8-1.68-3.54-3.35-5.21-5.01c-2.12-2.11-3.77-4.47-4.94-7.08c-1.17-2.61-1.76-5.7-1.76-9.26
				c0-3.46,0.7-6.58,2.1-9.34c1.4-2.76,3.34-5.1,5.82-7c2.17-1.66,4.75-2.87,7.75-3.65c3-0.78,6.03-1.17,9.1-1.17
				c1.31,0,2.02,0,2.13,0c0.11,0,0.39,0,0.85,0l0.61,8.89c-0.41,0-1-0.01-1.79-0.04c-0.79-0.02-1.64-0.04-2.54-0.04
				c-2.17,0-4.23,0.24-6.19,0.72c-1.96,0.48-3.51,1.14-4.64,2c-1.22,0.95-2.21,2.15-2.98,3.58c-0.77,1.43-1.15,3.08-1.15,4.93
				c0,2.01,0.3,3.78,0.91,5.31c0.61,1.53,1.61,3.05,3.01,4.56c1.22,1.31,2.64,2.69,4.26,4.14c1.62,1.46,3.11,2.89,4.47,4.29
				c2.39,2.36,4.19,4.9,5.41,7.61C115,99.39,115.61,102.41,115.61,105.72z"/>
			<path class="st0" d="M165.41,87.15c0,7.34-1.1,13.75-3.3,19.23c-2.2,5.48-5.03,9.88-8.49,13.19c-2.52,2.41-5.49,4.32-8.93,5.73
				c-3.44,1.41-6.75,2.16-9.94,2.26l0.07,34.27h-9.13c0-1.51,0.01-8.62,0.03-21.35c0.02-12.73,0.03-25.97,0.03-39.73
				c0-13.36-0.01-23.6-0.03-30.73c-0.02-7.13-0.03-13.58-0.03-19.36c0.77,0,1.61,0,2.53,0c0.92,0,2.08,0,3.48,0
				c5.31,0,9.92,0.73,13.81,2.19c3.89,1.46,7.06,3.37,9.49,5.73c3.24,3.17,5.79,7.11,7.63,11.84
				C164.49,75.14,165.41,80.72,165.41,87.15z M156.28,87.27c0-4.92-0.61-9.2-1.82-12.84c-1.21-3.64-2.97-6.74-5.26-9.3
				c-1.66-1.86-3.71-3.3-6.14-4.33c-2.43-1.03-4.88-1.54-7.35-1.54c-0.09,0-0.23,0-0.4,0s-0.36,0-0.54,0c0,0.25,0,3.63,0,10.13
				c0,6.5,0,12.69,0,18.57c0,5.27,0,11.44,0,18.49c0,7.06,0,11.24,0,12.54c2.7-0.1,5.18-0.63,7.45-1.58
				c2.27-0.95,4.26-2.28,5.97-3.99c2.79-2.86,4.83-6.44,6.14-10.73C155.63,98.38,156.28,93.24,156.28,87.27z"/>
			<path class="st0" d="M207.7,59.48c-1.99,0.85-4.76,2.23-8.32,4.16c-3.56,1.92-8.03,4.73-13.4,8.42c0,1.41-0.01,3.95-0.03,7.62
				c-0.02,3.67-0.03,7.92-0.03,12.75c0,5.98,0.01,12.94,0.03,20.85c0.02,7.92,0.03,12.68,0.03,14.29h-9.07
				c0-2.01,0.01-7.12,0.03-15.33c0.02-8.21,0.03-16.83,0.03-25.87c0-6.68-0.01-12.58-0.03-17.7c-0.02-5.12-0.03-10.9-0.03-17.32
				h9.07l-0.07,12.13l0.14,0.08c5.1-4.52,9.27-7.81,12.52-9.87c3.25-2.06,5.46-3.44,6.63-4.14L207.7,59.48z"/>
			<path class="st0" d="M246.68,86.36h-29.57c0,5.98,0.45,10.98,1.35,15.03c0.9,4.04,2.37,7.39,4.4,10.05
				c2.03,2.61,4.33,4.52,6.9,5.72c2.57,1.21,5.59,1.81,9.07,1.81c1.58,0,2.75-0.02,3.52-0.08c0.77-0.05,1.4-0.1,1.89-0.15
				l-1.08,8.89c-0.54,0.05-1.08,0.1-1.62,0.15c-0.54,0.05-1.8,0.08-3.79,0.08c-5.28-0.05-9.79-1.1-13.53-3.16
				c-3.75-2.06-6.79-4.95-9.13-8.66c-2.26-3.62-3.98-7.82-5.18-12.62c-1.2-4.79-1.79-9.78-1.79-14.95c0-6.07,0.38-11.27,1.15-15.59
				c0.77-4.32,2.26-8.56,4.47-12.73c1.94-3.66,4.15-6.35,6.63-8.06c2.48-1.71,5.23-2.56,8.25-2.56c2.8,0,5.3,0.72,7.51,2.15
				c2.21,1.43,4.1,3.53,5.68,6.29c1.71,3.26,2.94,7.23,3.69,11.9C246.24,74.54,246.63,80.04,246.68,86.36z M238.02,78.53
				c-0.45-7.13-1.52-12.35-3.21-15.67s-3.94-4.97-6.73-4.97s-5.11,1.59-6.94,4.78c-1.83,3.19-3.12,8.47-3.89,15.85H238.02z"/>
			<path class="st0" d="M281.93,105.72c0,3.52-0.63,6.7-1.89,9.57c-1.26,2.86-3.09,5.37-5.48,7.53c-1.94,1.76-4.52,3.11-7.75,4.07
				c-3.23,0.95-6.8,1.43-10.72,1.43c-1.17,0-2.13-0.03-2.88-0.08c-0.74-0.05-1.3-0.08-1.66-0.08l-0.74-8.89
				c0.86,0.1,1.76,0.16,2.71,0.19c0.95,0.03,2.03,0.04,3.25,0.04c2.48,0,4.66-0.24,6.53-0.72c1.87-0.48,3.46-1.14,4.77-2
				c1.4-0.9,2.55-2.11,3.45-3.62c0.9-1.51,1.35-3.44,1.35-5.8c0-2.26-0.38-4.2-1.15-5.84c-0.77-1.63-1.76-3.13-2.98-4.48
				c-0.77-0.85-2.05-2.12-3.86-3.8c-1.8-1.68-3.54-3.35-5.21-5.01c-2.12-2.11-3.77-4.47-4.94-7.08c-1.17-2.61-1.76-5.7-1.76-9.26
				c0-3.46,0.7-6.58,2.1-9.34c1.4-2.76,3.34-5.1,5.82-7c2.17-1.66,4.75-2.87,7.75-3.65c3-0.78,6.03-1.17,9.1-1.17
				c1.31,0,2.02,0,2.13,0c0.11,0,0.39,0,0.85,0l0.61,8.89c-0.41,0-1-0.01-1.79-0.04c-0.79-0.02-1.63-0.04-2.54-0.04
				c-2.17,0-4.23,0.24-6.19,0.72c-1.96,0.48-3.51,1.14-4.63,2c-1.22,0.95-2.21,2.15-2.98,3.58c-0.77,1.43-1.15,3.08-1.15,4.93
				c0,2.01,0.3,3.78,0.91,5.31c0.61,1.53,1.61,3.05,3.01,4.56c1.22,1.31,2.64,2.69,4.26,4.14c1.62,1.46,3.11,2.89,4.47,4.29
				c2.39,2.36,4.2,4.9,5.41,7.61S281.93,102.41,281.93,105.72z"/>
			<path class="st0" d="M317.18,105.72c0,3.52-0.63,6.7-1.89,9.57c-1.26,2.86-3.09,5.37-5.48,7.53c-1.94,1.76-4.52,3.11-7.75,4.07
				c-3.23,0.95-6.8,1.43-10.72,1.43c-1.17,0-2.13-0.03-2.88-0.08c-0.74-0.05-1.3-0.08-1.66-0.08l-0.74-8.89
				c0.86,0.1,1.76,0.16,2.71,0.19c0.95,0.03,2.03,0.04,3.25,0.04c2.48,0,4.66-0.24,6.53-0.72c1.87-0.48,3.46-1.14,4.77-2
				c1.4-0.9,2.55-2.11,3.45-3.62c0.9-1.51,1.35-3.44,1.35-5.8c0-2.26-0.38-4.2-1.15-5.84c-0.77-1.63-1.76-3.13-2.98-4.48
				c-0.77-0.85-2.05-2.12-3.86-3.8c-1.8-1.68-3.54-3.35-5.21-5.01c-2.12-2.11-3.77-4.47-4.94-7.08c-1.17-2.61-1.76-5.7-1.76-9.26
				c0-3.46,0.7-6.58,2.1-9.34c1.4-2.76,3.34-5.1,5.82-7c2.17-1.66,4.75-2.87,7.75-3.65c3-0.78,6.03-1.17,9.1-1.17
				c1.31,0,2.02,0,2.13,0c0.11,0,0.39,0,0.85,0l0.61,8.89c-0.41,0-1-0.01-1.79-0.04c-0.79-0.02-1.63-0.04-2.54-0.04
				c-2.17,0-4.23,0.24-6.19,0.72c-1.96,0.48-3.51,1.14-4.63,2c-1.22,0.95-2.21,2.15-2.98,3.58c-0.77,1.43-1.15,3.08-1.15,4.93
				c0,2.01,0.3,3.78,0.91,5.31c0.61,1.53,1.61,3.05,3.01,4.56c1.22,1.31,2.64,2.69,4.26,4.14c1.62,1.46,3.11,2.89,4.47,4.29
				c2.39,2.36,4.2,4.9,5.41,7.61S317.18,102.41,317.18,105.72z"/>
			<path class="st0" d="M364.34,89.38c0,5.67-0.46,11.2-1.39,16.57c-0.92,5.37-2.51,9.99-4.77,13.86c-1.8,3.06-3.89,5.42-6.26,7.08
				c-2.37,1.66-5.11,2.49-8.22,2.49c-2.93,0-5.67-0.87-8.22-2.6c-2.55-1.73-4.66-4.05-6.33-6.97c-2.3-4.02-3.9-8.64-4.8-13.86
				c-0.9-5.22-1.35-10.74-1.35-16.57c0-6.33,0.42-11.8,1.25-16.42c0.83-4.62,2.33-8.99,4.5-13.1c1.8-3.41,4.05-5.99,6.73-7.72
				c2.68-1.73,5.42-2.6,8.22-2.6c2.98,0,5.73,0.83,8.25,2.49c2.53,1.66,4.74,4.27,6.63,7.83c1.94,3.62,3.38,7.88,4.33,12.8
				C363.87,77.58,364.34,83.15,364.34,89.38z M355.21,89.38c0-5.07-0.33-9.9-0.98-14.5c-0.65-4.59-1.61-8.15-2.88-10.66
				c-0.95-1.91-2.06-3.4-3.35-4.48c-1.29-1.08-2.72-1.62-4.3-1.62c-1.58,0-3.01,0.53-4.3,1.58c-1.29,1.05-2.42,2.56-3.42,4.52
				c-1.17,2.26-2.11,5.62-2.81,10.09c-0.7,4.47-1.05,9.49-1.05,15.06c0,5.17,0.29,9.92,0.88,14.23c0.58,4.32,1.49,7.81,2.71,10.47
				c0.99,2.16,2.17,3.82,3.52,4.97c1.35,1.16,2.82,1.73,4.4,1.73c1.67,0,3.17-0.56,4.5-1.69c1.33-1.13,2.49-2.8,3.49-5.01
				c1.22-2.76,2.12-6.28,2.71-10.54C354.91,99.27,355.21,94.55,355.21,89.38z"/>
		</g>
	</g>
	<g>
		<g>
			<g>
				<path class="st1" d="M363.35,159.29v42.31c0,56.47-31.93,83.24-81.66,83.24s-82.71-26.76-82.71-82.96v-42.59H363.35z
					 M208.7,200.33c0,49.59,30.13,71.13,72.99,71.13s71.94-21.55,71.94-71.13v-28.27H208.7V200.33z"/>
			</g>
		</g>
	</g>
	<g>
		<g>
			<path class="st1" d="M206.61,159.64v46.39c0,37.61-12.5,59.84-39.91,59.84c-17.12,0-30.86-10.68-35.85-32.33h-1
				c-3.56,27.06-16.89,43.62-39.71,43.62c-31.63,0-47.89-25.34-47.89-67.57v-49.94H206.61z M52.08,206.26
				c0,37.16,11.59,58.24,37.97,58.24c23.66,0,34.61-20.85,34.61-58.24v-33.88H52.08V206.26z M134.5,200.93
				c0,37.57,10.8,52.29,31.73,52.29c21.89,0,30.55-16.46,30.55-50.77v-30.07H134.5V200.93z"/>
		</g>
	</g>
</g>
</svg>
